<mxfile host="app.diagrams.net" agent="Mozilla/5.0 (X11; Linux x86_64; rv:137.0) Gecko/20100101 Firefox/137.0" version="26.2.4">
  <diagram name="Seite-1" id="J1wCrZD52I6WVpJ2Atn_">
    <mxGraphModel dx="1020" dy="551" grid="1" gridSize="10" guides="1" tooltips="1" connect="1" arrows="1" fold="1" page="0" pageScale="1" pageWidth="827" pageHeight="1169" math="0" shadow="0">
      <root>
        <mxCell id="0" />
        <mxCell id="1" parent="0" />
        <mxCell id="jVnHDxxV6SvYso1CpIGO-1" value="" style="rounded=0;whiteSpace=wrap;html=1;fillColor=#fff2cc;strokeColor=#d6b656;" vertex="1" parent="1">
          <mxGeometry x="40" y="160" width="400" height="280" as="geometry" />
        </mxCell>
        <mxCell id="jVnHDxxV6SvYso1CpIGO-2" value="&lt;div&gt;&lt;b&gt;Background Image:&lt;/b&gt;&lt;/div&gt;&lt;div&gt;position: absolute&lt;/div&gt;&lt;div&gt;z-index: -1000&lt;/div&gt;" style="text;html=1;align=left;verticalAlign=top;resizable=0;points=[];autosize=1;strokeColor=none;fillColor=none;" vertex="1" parent="1">
          <mxGeometry x="40" y="443" width="140" height="60" as="geometry" />
        </mxCell>
        <mxCell id="jVnHDxxV6SvYso1CpIGO-3" value="" style="rounded=0;whiteSpace=wrap;html=1;" vertex="1" parent="1">
          <mxGeometry x="200" y="240" width="400" height="280" as="geometry" />
        </mxCell>
        <mxCell id="jVnHDxxV6SvYso1CpIGO-4" value="&lt;div&gt;&lt;b&gt;Main Area:&lt;/b&gt;&lt;/div&gt;&lt;div&gt;display: flex&lt;/div&gt;&lt;div&gt;min-height: 100vh&lt;/div&gt;" style="text;html=1;align=left;verticalAlign=top;resizable=0;points=[];autosize=1;strokeColor=none;fillColor=none;" vertex="1" parent="1">
          <mxGeometry x="200" y="530" width="130" height="60" as="geometry" />
        </mxCell>
        <mxCell id="jVnHDxxV6SvYso1CpIGO-7" value="&lt;div&gt;&lt;b&gt;Content:&lt;/b&gt;&lt;/div&gt;&lt;div&gt;flex: 1&lt;/div&gt;" style="text;html=1;align=left;verticalAlign=top;resizable=0;points=[];autosize=1;strokeColor=none;fillColor=none;" vertex="1" parent="1">
          <mxGeometry x="205" y="240" width="80" height="40" as="geometry" />
        </mxCell>
        <mxCell id="jVnHDxxV6SvYso1CpIGO-8" value="" style="rounded=0;whiteSpace=wrap;html=1;" vertex="1" parent="1">
          <mxGeometry x="680" y="240" width="400" height="280" as="geometry" />
        </mxCell>
        <mxCell id="jVnHDxxV6SvYso1CpIGO-11" value="&lt;div&gt;&lt;b&gt;Content:&lt;/b&gt;&lt;/div&gt;&lt;div&gt;flex: 1&lt;/div&gt;" style="text;html=1;align=left;verticalAlign=top;resizable=0;points=[];autosize=1;strokeColor=none;fillColor=none;" vertex="1" parent="1">
          <mxGeometry x="685" y="240" width="80" height="40" as="geometry" />
        </mxCell>
        <mxCell id="jVnHDxxV6SvYso1CpIGO-12" value="" style="rounded=1;whiteSpace=wrap;html=1;fillColor=#f5f5f5;fontColor=#333333;strokeColor=#666666;shadow=1;" vertex="1" parent="1">
          <mxGeometry x="720" y="460" width="320" height="40" as="geometry" />
        </mxCell>
        <mxCell id="jVnHDxxV6SvYso1CpIGO-10" value="&lt;div&gt;&lt;b&gt;Dock (Floating)&lt;/b&gt;&lt;/div&gt;&lt;div&gt;position: absolute&lt;/div&gt;" style="text;html=1;align=left;verticalAlign=top;resizable=0;points=[];autosize=1;strokeColor=none;fillColor=none;" vertex="1" parent="1">
          <mxGeometry x="730" y="460" width="120" height="40" as="geometry" />
        </mxCell>
        <mxCell id="jVnHDxxV6SvYso1CpIGO-13" value="" style="shape=flexArrow;endArrow=classic;startArrow=classic;html=1;rounded=0;fillColor=#dae8fc;strokeColor=#6c8ebf;" edge="1" parent="1">
          <mxGeometry width="100" height="100" relative="1" as="geometry">
            <mxPoint x="610" y="360" as="sourcePoint" />
            <mxPoint x="670" y="360" as="targetPoint" />
          </mxGeometry>
        </mxCell>
        <mxCell id="jVnHDxxV6SvYso1CpIGO-14" value="&lt;i&gt;Dock configuration is saved in LocalStorage.&lt;/i&gt;" style="text;html=1;align=center;verticalAlign=middle;resizable=0;points=[];autosize=1;strokeColor=none;fillColor=none;spacing=-1;" vertex="1" parent="1">
          <mxGeometry x="685" y="530" width="270" height="20" as="geometry" />
        </mxCell>
        <mxCell id="jVnHDxxV6SvYso1CpIGO-46" value="" style="rounded=0;whiteSpace=wrap;html=1;fillColor=#eeeeee;strokeColor=#36393d;" vertex="1" parent="1">
          <mxGeometry x="200" y="480" width="400" height="40" as="geometry" />
        </mxCell>
        <mxCell id="jVnHDxxV6SvYso1CpIGO-6" value="&lt;b&gt;Dock (Attached)&lt;/b&gt;" style="text;html=1;align=left;verticalAlign=top;resizable=0;points=[];autosize=1;strokeColor=none;fillColor=none;" vertex="1" parent="1">
          <mxGeometry x="205" y="480" width="120" height="30" as="geometry" />
        </mxCell>
        <mxCell id="jVnHDxxV6SvYso1CpIGO-47" value="&lt;i&gt;AI conversation is greyed out when the user is not logged in.&lt;/i&gt;" style="text;html=1;align=left;verticalAlign=middle;resizable=0;points=[];autosize=1;strokeColor=none;fillColor=none;spacing=-1;" vertex="1" parent="1">
          <mxGeometry x="380" y="630" width="350" height="20" as="geometry" />
        </mxCell>
        <mxCell id="jVnHDxxV6SvYso1CpIGO-5" value="" style="rounded=0;whiteSpace=wrap;html=1;fillColor=#f5f5f5;fontColor=#333333;strokeColor=#666666;" vertex="1" parent="1">
          <mxGeometry x="380" y="660" width="660" height="80" as="geometry" />
        </mxCell>
        <mxCell id="jVnHDxxV6SvYso1CpIGO-16" value="&lt;i&gt;Ask anything ...&lt;/i&gt;" style="text;html=1;align=left;verticalAlign=top;resizable=0;points=[];autosize=1;strokeColor=none;fillColor=none;fontColor=#4D4D4D;spacing=0;spacingLeft=5;spacingTop=4;" vertex="1" parent="1">
          <mxGeometry x="390" y="660" width="110" height="30" as="geometry" />
        </mxCell>
        <mxCell id="jVnHDxxV6SvYso1CpIGO-61" value="🏡" style="ellipse;whiteSpace=wrap;html=1;aspect=fixed;fillColor=none;spacing=0;spacingBottom=3;" vertex="1" parent="1">
          <mxGeometry x="430" y="700" width="30" height="30" as="geometry" />
        </mxCell>
        <mxCell id="jVnHDxxV6SvYso1CpIGO-62" value="&lt;span data-char-info=&quot;U+1F5D7: OVERLAP&quot; class=&quot;emojiXL&quot;&gt;🗗&lt;/span&gt;" style="ellipse;whiteSpace=wrap;html=1;aspect=fixed;fillColor=none;spacing=0;spacingBottom=0;" vertex="1" parent="1">
          <mxGeometry x="390" y="700" width="30" height="30" as="geometry" />
        </mxCell>
        <mxCell id="jVnHDxxV6SvYso1CpIGO-63" value="📚" style="ellipse;whiteSpace=wrap;html=1;aspect=fixed;fillColor=none;spacing=0;spacingBottom=3;" vertex="1" parent="1">
          <mxGeometry x="470" y="700" width="30" height="30" as="geometry" />
        </mxCell>
        <mxCell id="jVnHDxxV6SvYso1CpIGO-64" value="📊" style="ellipse;whiteSpace=wrap;html=1;aspect=fixed;fillColor=none;spacing=0;spacingBottom=0;" vertex="1" parent="1">
          <mxGeometry x="510" y="700" width="30" height="30" as="geometry" />
        </mxCell>
        <mxCell id="jVnHDxxV6SvYso1CpIGO-65" value="🚪" style="ellipse;whiteSpace=wrap;html=1;aspect=fixed;fillColor=none;spacing=0;spacingBottom=3;" vertex="1" parent="1">
          <mxGeometry x="590" y="700" width="30" height="30" as="geometry" />
        </mxCell>
        <mxCell id="jVnHDxxV6SvYso1CpIGO-66" value="🧑‍🦱" style="ellipse;whiteSpace=wrap;html=1;aspect=fixed;fillColor=none;spacing=0;spacingBottom=0;" vertex="1" parent="1">
          <mxGeometry x="550" y="700" width="30" height="30" as="geometry" />
        </mxCell>
        <mxCell id="jVnHDxxV6SvYso1CpIGO-68" value="📑" style="ellipse;whiteSpace=wrap;html=1;aspect=fixed;fillColor=none;spacing=0;spacingBottom=3;" vertex="1" parent="1">
          <mxGeometry x="780" y="700" width="30" height="30" as="geometry" />
        </mxCell>
        <mxCell id="jVnHDxxV6SvYso1CpIGO-69" value="&lt;span data-src=&quot;&quot; class=&quot;Emoji_emoji__vbZHi __variable_e5a5aa Emoji_emoji-large__GG4kj !bg-transparent&quot;&gt;🔧&lt;/span&gt;" style="ellipse;whiteSpace=wrap;html=1;aspect=fixed;fillColor=none;spacing=0;spacingBottom=0;" vertex="1" parent="1">
          <mxGeometry x="740" y="700" width="30" height="30" as="geometry" />
        </mxCell>
        <mxCell id="jVnHDxxV6SvYso1CpIGO-70" value="&lt;span class=&quot;unicodeXL&quot; data-char-info=&quot;U+2B95: RIGHTWARDS BLACK ARROW&quot;&gt;⮕&lt;/span&gt;" style="ellipse;whiteSpace=wrap;html=1;aspect=fixed;fillColor=none;spacing=0;spacingBottom=3;fontColor=#004C99;" vertex="1" parent="1">
          <mxGeometry x="860" y="700" width="30" height="30" as="geometry" />
        </mxCell>
        <mxCell id="jVnHDxxV6SvYso1CpIGO-71" value="&lt;span class=&quot;unicodeXL&quot; data-char-info=&quot;U+2B05: LEFTWARDS BLACK ARROW&quot;&gt;⬅&lt;/span&gt;" style="ellipse;whiteSpace=wrap;html=1;aspect=fixed;fillColor=none;spacing=0;spacingBottom=0;fontColor=#004C99;" vertex="1" parent="1">
          <mxGeometry x="820" y="700" width="30" height="30" as="geometry" />
        </mxCell>
        <mxCell id="jVnHDxxV6SvYso1CpIGO-72" value="✨" style="ellipse;whiteSpace=wrap;html=1;aspect=fixed;fillColor=none;spacing=0;spacingBottom=3;fontColor=#004C99;" vertex="1" parent="1">
          <mxGeometry x="1000" y="700" width="30" height="30" as="geometry" />
        </mxCell>
        <mxCell id="jVnHDxxV6SvYso1CpIGO-73" value="&lt;span class=&quot;box&quot;&gt;⏎&lt;/span&gt;" style="ellipse;whiteSpace=wrap;html=1;aspect=fixed;fillColor=#CCCCCC;spacing=0;spacingBottom=0;fontColor=#004C99;" vertex="1" parent="1">
          <mxGeometry x="960" y="700" width="30" height="30" as="geometry" />
        </mxCell>
        <mxCell id="jVnHDxxV6SvYso1CpIGO-74" value="&lt;span&gt;Detach/Attach Dock&lt;/span&gt;" style="text;html=1;align=left;verticalAlign=middle;resizable=0;points=[];autosize=1;strokeColor=none;fillColor=none;spacing=-1;fontStyle=2" vertex="1" parent="1">
          <mxGeometry x="390" y="750" width="130" height="20" as="geometry" />
        </mxCell>
        <mxCell id="jVnHDxxV6SvYso1CpIGO-75" value="Go to home page" style="text;html=1;align=left;verticalAlign=middle;resizable=0;points=[];autosize=1;strokeColor=none;fillColor=none;spacing=-1;fontStyle=2" vertex="1" parent="1">
          <mxGeometry x="430" y="770" width="110" height="20" as="geometry" />
        </mxCell>
        <mxCell id="jVnHDxxV6SvYso1CpIGO-76" value="Go to learning dashboard" style="text;html=1;align=left;verticalAlign=middle;resizable=0;points=[];autosize=1;strokeColor=none;fillColor=none;spacing=-1;fontStyle=2" vertex="1" parent="1">
          <mxGeometry x="510" y="810" width="160" height="20" as="geometry" />
        </mxCell>
        <mxCell id="jVnHDxxV6SvYso1CpIGO-77" value="Go to course directory" style="text;html=1;align=left;verticalAlign=middle;resizable=0;points=[];autosize=1;strokeColor=none;fillColor=none;spacing=-1;fontStyle=2" vertex="1" parent="1">
          <mxGeometry x="470" y="790" width="140" height="20" as="geometry" />
        </mxCell>
        <mxCell id="jVnHDxxV6SvYso1CpIGO-78" value="User profile &amp;amp; settings" style="text;html=1;align=left;verticalAlign=middle;resizable=0;points=[];autosize=1;strokeColor=none;fillColor=none;spacing=-1;fontStyle=2" vertex="1" parent="1">
          <mxGeometry x="550" y="750" width="140" height="20" as="geometry" />
        </mxCell>
        <mxCell id="jVnHDxxV6SvYso1CpIGO-79" value="Log out / Sign up &amp;amp; Login" style="text;html=1;align=left;verticalAlign=middle;resizable=0;points=[];autosize=1;strokeColor=none;fillColor=none;spacing=-1;fontStyle=2" vertex="1" parent="1">
          <mxGeometry x="590" y="770" width="160" height="20" as="geometry" />
        </mxCell>
        <mxCell id="jVnHDxxV6SvYso1CpIGO-80" value="Course settings" style="text;html=1;align=left;verticalAlign=middle;resizable=0;points=[];autosize=1;strokeColor=none;fillColor=none;spacing=-1;fontStyle=2" vertex="1" parent="1">
          <mxGeometry x="740" y="750" width="100" height="20" as="geometry" />
        </mxCell>
        <mxCell id="jVnHDxxV6SvYso1CpIGO-81" value="Content overview" style="text;html=1;align=left;verticalAlign=middle;resizable=0;points=[];autosize=1;strokeColor=none;fillColor=none;spacing=-1;fontStyle=2" vertex="1" parent="1">
          <mxGeometry x="775" y="770" width="120" height="20" as="geometry" />
        </mxCell>
        <mxCell id="jVnHDxxV6SvYso1CpIGO-82" value="Previous activity" style="text;html=1;align=left;verticalAlign=middle;resizable=0;points=[];autosize=1;strokeColor=none;fillColor=none;spacing=-1;fontStyle=2" vertex="1" parent="1">
          <mxGeometry x="820" y="790" width="110" height="20" as="geometry" />
        </mxCell>
        <mxCell id="jVnHDxxV6SvYso1CpIGO-83" value="Next activity" style="text;html=1;align=left;verticalAlign=middle;resizable=0;points=[];autosize=1;strokeColor=none;fillColor=none;spacing=-1;fontStyle=2" vertex="1" parent="1">
          <mxGeometry x="860" y="810" width="90" height="20" as="geometry" />
        </mxCell>
        <mxCell id="jVnHDxxV6SvYso1CpIGO-84" value="Toggle Enter or Shift+Enter" style="text;html=1;align=left;verticalAlign=middle;resizable=0;points=[];autosize=1;strokeColor=none;fillColor=none;spacing=-1;fontStyle=2" vertex="1" parent="1">
          <mxGeometry x="960" y="770" width="170" height="20" as="geometry" />
        </mxCell>
        <mxCell id="jVnHDxxV6SvYso1CpIGO-85" value="Send question to AI" style="text;html=1;align=left;verticalAlign=middle;resizable=0;points=[];autosize=1;strokeColor=none;fillColor=none;spacing=-1;fontStyle=2" vertex="1" parent="1">
          <mxGeometry x="1000" y="790" width="130" height="20" as="geometry" />
        </mxCell>
        <mxCell id="jVnHDxxV6SvYso1CpIGO-87" value="📜" style="ellipse;whiteSpace=wrap;html=1;aspect=fixed;fillColor=none;spacing=0;spacingBottom=3;fontColor=#004C99;" vertex="1" parent="1">
          <mxGeometry x="920" y="700" width="30" height="30" as="geometry" />
        </mxCell>
        <mxCell id="jVnHDxxV6SvYso1CpIGO-88" value="Go to conversation history" style="text;html=1;align=left;verticalAlign=middle;resizable=0;points=[];autosize=1;strokeColor=none;fillColor=none;spacing=-1;fontStyle=2" vertex="1" parent="1">
          <mxGeometry x="920" y="750" width="170" height="20" as="geometry" />
        </mxCell>
      </root>
    </mxGraphModel>
  </diagram>
</mxfile>
